PathFileType	4	(X/Y/Z)	C:/Users/beibeiliu/ov580/test_trc/User2\sequence.29_training_dense_right.trc
DataRate	CameraRate	NumFrames	NumMarkers	Units	OrigDataRate	OrigDataStartFrame	OrigNumFrames
120	120	18	19	mm	120	320	365
Frame#	Time	ThumbCMC			ThumbMCP			ThumbIP			ThumbTip			IndexMCP			IndexPIP			IndexTip			MiddleMCP			MiddlePIP			MiddleTip			RingMCP			RingPIP			RingTip			PinkyMCP			PinkyPIP			PinkyTip			BackHand1			BackHand2			BackHand3	
		X0	Y0	Z0	X1	Y1	Z1	X2	Y2	Z2	X3	Y3	Z3	X4	Y4	Z4	X5	Y5	Z5	X6	Y6	Z6	X7	Y7	Z7	X8	Y8	Z8	X9	Y9	Z9	X10	Y10	Z10	X11	Y11	Z11	X12	Y12	Z12	X13	Y13	Z13	X14	Y14	Z14	X15	Y15	Z15	X16	Y16	Z16	X17	Y17	Z17	X18	Y18	Z18	
319	2.65833	81.443	26.719	104.82	55.9155	39.0424	85.6532	29.8264	46.9185	62.4146	9.18439	43.7617	46.6127	48.4985	-1.96705	32.0983	19.7153	-7.92501	44.6666	35.9838	1.00683	79.1459	45.5531	-22.1119	35.2234	18.6303	-23.9182	61.569	41.5416	-13.7427	89.0033	39.397	-41.225	48.5391	24.831	-40.2476	75.821	56.951	-26.2116	93.1998	49.4221	-59.6491	62.2091	33.5288	-48.7202	89.0466	58.7975	-34.8037	103.112	102.064	-36.5848	68.4288	121.11	-35.1761	101.515	106.852	-1.17728	82.1005	
320	2.66667	71.8153	27.8476	106.027	43.7911	36.1865	96.4255	15.0066	40.1275	76.4498	-5.69054	36.3193	59.157	45.0677	2.80708	33.6708	16.1915	-5.09289	46.8748	31.1905	-3.31911	79.6004	42.576	-18.5359	34.2404	18.3897	-25.6449	57.6552	41.9373	-14.7495	89.4352	43.6807	-42.7788	46.6644	28.003	-42.7533	73.8803	56.2013	-26.4751	93.2028	53.9431	-54.1879	57.1935	36.0736	-49.4271	84.178	62.4668	-35.5748	103.355	103.219	-27.4893	69.3309	119.909	-27.4444	102.176	104.51	8.15122	87.7387	
321	2.675	65.4575	27.0916	113.382	35.406	32.235	101.751	3.99621	36.5191	82.6028	-15.9188	29.213	63.6356	43.8356	9.72281	34.7272	17.4891	-7.25253	46.8684	28.7568	-3.93836	78.2053	45.0875	-17.9941	32.6317	22.2676	-28.7178	55.1199	43.8409	-18.1052	88.28	47.5509	-33.9507	42.9195	29.7814	-41.6321	68.9691	51.7537	-25.7944	89.5313	53.8957	-51.397	54.0064	39.4604	-50.6645	81.6303	63.9603	-34.2782	99.6869	106.231	-19.7472	68.2761	121.252	-18.7816	99.3098	101.104	10.649	87.1009	
322	2.68333	59.6145	23.0429	113.722	31.0247	21.4761	101.326	-0.9602	24.5679	84.1443	-17.1705	17.3843	68.1674	45.9041	11.1903	36.1793	18.2215	-7.51791	44.5675	31.6755	-10.5604	75.8252	47.1236	-10.7795	31.4741	24.5097	-28.0309	52.3784	45.7933	-16.6774	87.124	51.5878	-34.5007	38.8899	36.3477	-42.388	65.0847	58.7281	-25.8933	87.3935	62.3549	-52.4319	47.6175	46.1983	-50.924	73.3593	70.8549	-37.252	95.9482	109.696	-17.0483	65.9218	123.324	-15.5677	97.6209	100.433	13.2278	92.8747	
323	2.69167	57.3098	14.3265	117.458	27.4185	11.7806	101.142	-0.258962	10.8257	87.2931	-21.4947	6.37367	66.9703	44.4103	12.5584	35.6605	23.3753	-12.2111	41.5466	34.6838	-12.8474	76.8399	55.3563	-8.47707	30.1238	30.3093	-29.9794	49.6667	46.6009	-22.7251	82.3897	61.8648	-30.3623	34.682	41.7916	-41.8692	58.2367	62.5613	-30.7927	83.721	71.6087	-48.1653	42.4613	53.393	-50.7261	69.4674	74.6009	-36.6568	92.6257	110.211	-6.23934	68.7967	123.541	-8.51666	100.035	98.031	18.4509	98.3261	
324	2.7	53.9965	9.37957	115.827	23.8535	6.34842	100.653	-1.94889	2.45965	83.24	-21.704	-1.4576	64.5788	43.5745	14.9923	37.3135	23.947	-12.9762	40.9045	37.7263	-16.6655	76.2395	55.811	-5.47342	29.999	35.6879	-31.7716	46.3957	49.5141	-26.4596	79.0131	65.5255	-27.3447	32.2465	50.4045	-46.9023	51.9089	65.3096	-29.7929	81.422	76.0744	-41.1651	39.7597	61.849	-52.4954	66.0203	77.5223	-38.1184	86.8286	113.39	-5.83247	70.5215	124.289	-6.58931	101.622	92.7779	18.9649	96.8708	
325	2.70833	55.3512	5.93645	118.626	25.2407	1.64096	99.8454	-2.19581	-0.892456	81.402	-20.1944	-5.18414	60.1793	42.9837	14.6608	36.4188	30.0911	-13.1228	35.8452	40.5129	-19.2302	70.6475	57.0754	-4.46603	29.1967	40.0607	-31.9162	43.2609	54.8062	-27.7067	77.16	68.2329	-23.9017	32.3595	53.2886	-43.5515	48.4991	72.4507	-29.9367	79.5305	82.2039	-42.2997	37.8396	66.2951	-52.0586	64.3875	84.8088	-33.0949	85.2188	113.447	-0.922716	69.7107	125.233	-6.04211	101.018	92.5649	20.2352	98.5668	
326	2.71667	55.324	4.35345	118.774	28.2198	-1.79174	96.0025	1.90555	-2.79527	73.7297	-12.5787	-8.28992	55.2306	49.8765	10.2335	33.1283	34.6012	-14.923	33.6476	41.1073	-20.4923	68.9897	64.9052	-4.67338	28.517	46.3487	-35.4633	41.6721	58.215	-27.4277	77.9091	75.1828	-25.0385	31.491	59.8285	-48.6838	48.5844	74.5288	-31.5827	78.6045	86.3455	-43.0552	36.3335	71.0206	-52.4693	64.7192	85.9258	-36.9721	86.3303	114.89	-1.04835	71.4489	129.363	-7.68334	103.66	98.9705	15.1852	100.408	
327	2.725	58.5794	2.30224	110.966	27.8919	-1.96717	96.4502	6.15135	-5.53566	73.1484	-10.2231	-9.99092	48.6631	51.7895	13.3239	33.776	36.4239	-16.1633	32.6273	43.9908	-20.4521	69.3035	67.0744	-7.9805	25.4294	47.8299	-34.2544	36.4044	62.8588	-26.4678	75.9699	77.1312	-29.4764	29.5443	59.5431	-45.6189	47.504	75.6795	-30.6009	77.6559	89.9145	-42.9773	36.5068	74.1922	-54.1243	63.0214	91.2691	-33.1918	84.5805	120.157	-3.51714	69.1657	127.393	-4.5798	103.797	98.7375	16.5039	96.7079	
328	2.73333	57.9837	1.65506	110.902	33.0455	-3.65447	89.7817	7.97016	-4.93294	69.1477	-11.4508	-8.79513	47.4387	53.0928	12.4188	32.7667	37.3259	-17.3087	31.8993	46.0004	-19.9768	66.7341	70.164	-8.05089	24.2012	48.9887	-34.8369	39.7654	63.5577	-27.2111	74.7952	75.0902	-28.1735	28.8807	64.4678	-48.7464	47.6283	80.4595	-28.4507	78.4456	92.2127	-39.6707	37.0732	75.0668	-51.5969	64.3742	88.0991	-36.3592	85.1853	119.641	-2.604	70.8816	129.74	-8.496	102.506	96.9618	15.2587	96.7507	
329	2.74167	58.268	2.44203	110.231	33.3993	-2.17527	87.7373	7.52384	0.0859665	63.3489	-3.39651	-4.61443	41.1037	57.6741	11.6773	31.0035	39.359	-18.1794	30.2977	51.7325	-18.8511	66.3789	69.7315	-10.0131	22.8438	52.6984	-36.6786	38.9288	62.1209	-24.0418	74.5268	83.6105	-28.3007	29.6322	68.0012	-49.9752	49.7835	77.7161	-31.4562	77.1417	95.9765	-42.2981	36.5001	79.6398	-57.181	63.029	92.3905	-34.796	84.5651	118.362	0.0393076	71.8686	129.68	-5.2178	103.533	95.7982	19.0999	99.4479	
330	2.75	58.3971	3.76736	105.28	33.1497	2.6831	85.2863	15.3724	2.44687	59.1663	-1.02803	1.6228	33.3993	59.9072	9.04622	29.0066	44.1128	-19.8718	28.8505	50.4833	-19.6678	63.0929	71.2115	-8.67198	21.8719	54.9273	-36.9967	33.7993	65.3458	-28.6537	71.6799	82.4939	-31.4838	28.6599	65.2569	-47.7058	51.2499	80.1383	-29.2953	78.6128	100.252	-43.1483	37.2549	80.5518	-55.9199	62.1749	91.9231	-35.6521	86.3885	119.062	-1.37324	73.5422	129.652	-6.44562	104.069	95.5193	16.5176	99.7739	
331	2.75833	57.0588	3.71357	110.336	36.0356	4.692	80.4593	18.9905	6.54175	52.1895	4.9628	5.61646	31.294	59.0972	5.78349	24.6608	44.2892	-22.666	29.0271	54.258	-24.036	60.4896	74.9058	-11.3244	21.5979	59.6643	-41.3782	35.5075	65.301	-29.1661	71.5095	88.3214	-31.7109	30.6036	70.2663	-51.6745	48.0622	80.912	-35.2138	78.0468	99.1703	-45.6208	38.7059	81.5378	-57.6039	63.3932	92.2852	-39.9513	87.1144	124.69	-4.62221	71.6905	129.749	-9.9245	108.925	98.2194	13.7914	95.0658	
332	2.76667	62.5006	-0.149319	106.049	38.9123	1.36533	83.386	22.3634	6.811	51.368	12.2776	5.1778	26.098	63.3298	2.64998	24.232	52.08	-27.3802	24.5262	57.1244	-27.3047	59.9117	79.3197	-16.4688	22.1484	60.8821	-45.2047	34.3675	70.507	-30.7429	73.3955	90.9971	-39.6873	29.5772	74.6571	-56.2771	48.8889	81.8856	-33.2993	78.6897	102.509	-53.0159	39.9954	83.3032	-58.6927	66.4927	98.8896	-39.5027	88.7917	127.472	-6.70313	69.5306	130.491	-10.2485	108.398	100.683	11.0982	98.336	
333	2.775	61.5845	1.42936	105.257	42.6739	3.71095	78.5938	24.383	6.74722	51.2436	14.6957	5.57779	28.4995	66.8616	0.464855	24.3986	49.7437	-25.9267	23.3937	55.4616	-24.9977	61.5402	84.198	-19.8875	21.3374	62.3854	-46.9672	35.5391	72.1372	-33.0351	71.6208	90.4509	-42.4846	29.4593	74.7201	-57.6113	51.5819	84.4517	-37.7145	77.8915	102.167	-50.3533	40.2078	85.2838	-61.3356	63.0016	99.3461	-39.1595	90.709	128.319	-8.21918	70.2504	130.817	-8.4049	107.318	101.746	14.0178	92.339	
334	2.78333	64.5624	0.317117	102.57	43.9916	2.21285	78.8645	27.6172	6.21448	48.0902	20.5882	3.35347	23.9669	68.7322	0.184155	24.6295	53.1896	-30.613	25.5254	58.2352	-25.3937	62.6401	82.6469	-21.3939	21.9017	62.7297	-46.1481	32.4665	71.3892	-31.9795	73.5625	94.9163	-41.2106	31.4273	77.6556	-60.7426	51.525	83.6734	-36.9173	78.1732	107.85	-53.232	40.7895	86.6963	-62.5321	68.054	98.4881	-43.2607	88.7003	128.246	-10.5121	71.6615	129.73	-9.07383	110.225	102.3	12.6054	96.5256	
335	2.79167	60.5005	2.79655	102.83	43.2548	2.98097	78.0297	26.5926	7.45747	47.571	18.2083	3.46104	27.6932	66.5565	-4.48779	22.6109	55.9281	-32.4105	24.5537	55.7364	-25.2888	62.2708	87.6525	-22.9579	24.0043	66.0261	-49.6055	36.2272	73.9037	-33.1191	73.998	91.9571	-41.6826	32.217	74.9725	-58.6003	52.5585	88.5818	-36.1496	81.5387	107.933	-50.7908	41.7492	88.6381	-63.9373	67.1666	96.5288	-43.2109	89.8365	127.13	-7.5483	75.5903	130.851	-8.42104	110.867	98.3357	11.9394	97.5107	
336	2.8	64.4933	0.0964534	102.853	39.5453	4.3513	81.6708	29.5572	4.81364	48.0476	19.3304	2.63454	26.2621	70.6574	-3.24413	26.2028	51.2092	-30.5583	25.4304	59.2705	-27.5081	63.0849	85.0072	-20.8708	24.3593	64.7522	-48.2974	34.197	73.808	-31.813	74.773	92.1483	-41.4851	32.4696	77.2348	-60.6082	51.7182	85.742	-38.2428	79.8086	105.364	-51.9922	42.6808	87.3611	-62.0049	69.4308	97.1631	-40.4299	87.5966	127.133	-8.18688	72.2969	130.924	-8.70246	106.676	100.415	12.0022	96.8817	
